# xmcd
#
# Track frame offsets:
#	150
#	15501
#	31493
#	45618
#	59608
#	74710
#	89784
#	104231
#	119449
#	135826
#	146727
#	162059
#	177806
#	197023
#	211730
#	223688
#
# Disc length: 3156 seconds
#
# Revision: 0
# Processed by: cddbd v1.5.2PL0 Copyright (c) Steve Scherf et al.
# Submitted via: EasyCDDAExtractor 16.0.8.2
#
DISCID=f30c5210
DTITLE=Συλλογικός δίσκος - Μέσ' στου Αιγαίου τα νησιά 6
DYEAR=1999
DGENRE=Παραδοσιακή
TTITLE0=Χατζηδάκη Αιμιλία - Τζιβαέρι μου
TTITLE1=Χατζηδάκη Αιμιλία - Τη θάλασσα την αγαπώ
TTITLE2=Κονιτόπουλος Γιώργος - Το λουλουδάκι του μπαξέ [διασκ. Γ. Κονιτόπουλος
TTITLE2=]
TTITLE3=Καραμπεσίνη Άννα-Σαρρή Έφη - Παρακαλώ σε θάλασσα
TTITLE4=Σπανού Θάλεια - Σάμος μου όμορφο νησί
TTITLE5=Χατζηδάκη Αιμιλία - Θαλασσάκι μου
TTITLE6=Καραμπεσίνη Άννα-Σαρρή Έφη - Το καραβάκι
TTITLE7=Χατζηδάκη Άννα - Στου Δρυμώνα τ' ακρογιάλι
TTITLE8=Πασαλάρη Σούλα - Θάλασσα λεβεντοπνίχτρα
TTITLE9=Άνευ ερμηνευτού - Σούστα Ρόδου [διασκ. Τάσος Διακογιώργης]
TTITLE10=Κονιτοπούλου Ειρήνη-Καραμπεσίνη Άννα - Από την πόρτα σου περνώ
TTITLE11=Καραμπεσίνη Άννα - Μέρα μέρωσε
TTITLE12=Κονιτόπουλος Γιώργος - Μπάλλος
TTITLE13=Κονιτόπουλος Γιώργος - Θα πάρω βόλτα τα νησιά [διασκ. Γ. Κονιτόπουλος
TTITLE13=]
TTITLE14=Καραμπεσίνη Άννα-Σαρρή Έφη - Αλατσατιανή
TTITLE15=Λεγάκη Ελένη - Η βροχή
EXTD=
EXTT0=
EXTT1=
EXTT2=
EXTT3=
EXTT4=
EXTT5=
EXTT6=
EXTT7=
EXTT8=
EXTT9=
EXTT10=
EXTT11=
EXTT12=
EXTT13=
EXTT14=
EXTT15=
PLAYORDER=
